# AST/ASF file generated using VICON BodyLanguage
# -----------------------------------------------
:version 1.10
:name VICON
:units
  mass 1.0
  length 0.45
  angle deg
:documentation
   .ast/.asf automatically generated from VICON data using
   VICON BodyBuilder and BodyLanguage model FoxedUp or BRILLIANT.MOD
:root
   order TX TY TZ RX RY RZ
   axis XYZ
   position 0 0 0  
   orientation 0 0 0 
:bonedata
  begin
     id 1 
     name lhipjoint
     direction 0.646657 -0.683706 0.338203 
     length 2.4948 
     axis 0 0 0  XYZ
  end
  begin
     id 2 
     name lfemur
     direction 0.34202 -0.939693 0  
     length 6.79491  
     axis 0 0 20  XYZ
    dof rx ry rz
    limits (-160.0 20.0)
           (-70.0 70.0)
           (-60.0 70.0)
  end
  begin
     id 3 
     name ltibia
     direction 0.34202 -0.939693 0   
     length 7.56807   
     axis 0 0 20   XYZ
    dof rx
    limits (-10.0 170.0)
  end
  begin
     id 4 
     name lfoot
     direction 0.0679796 -0.186772 0.980048   
     length 2.53018   
     axis -90 7.62852e-016 20   XYZ
    dof rx rz
    limits (-45.0 90.0)
           (-70.0 20.0)
  end
  begin
     id 5 
     name ltoes
     direction 1.53625e-011 -4.21881e-011 1   
     length 1.26912   
     axis -90 7.62852e-016 20   XYZ
    dof rx
    limits (-90.0 20.0)
  end
  begin
     id 6 
     name rhipjoint
     direction -0.618868 -0.704065 0.348274   
     length 2.42265  
     axis 0 0 0  XYZ 
  end
  begin
     id 7 
     name rfemur
     direction -0.34202 -0.939693 0   
     length 6.73814   
     axis 0 0 -20   XYZ
    dof rx ry rz
    limits (-160.0 20.0)
           (-70.0 70.0)
           (-70.0 60.0)
  end
  begin
     id 8 
     name rtibia
     direction -0.34202 -0.939693 0   
     length 7.66799   
     axis 0 0 -20   XYZ
    dof rx
    limits (-10.0 170.0)
 end
 begin
     id 9 
     name rfoot
     direction -0.0727352 -0.199838 0.977125   
     length 2.57224  
     axis -90 -7.62852e-016 -20   XYZ
    dof rx rz
    limits (-45.0 90.0)
           (-20.0 70.0)
  end
  begin
     id 10 
     name rtoes
     direction -1.53501e-011 -4.21858e-011 1   
     length 1.28858   
     axis -90 -7.62852e-016 -20   XYZ
    dof rx
    limits (-90.0 20.0)
  end
  begin
     id 11 
     name lowerback
     direction -0.0172471 0.995767 -0.0902851   
     length 2.20206   
     axis 0 0 0   XYZ
    dof rx ry rz
    limits (-20.0 45.0)
           (-30.0 30.0)
           (-30.0 30.0)
  end
  begin
     id 12 
     name upperback
     direction -0.000110737 0.999714 0.0239043   
     length 2.19523   
     axis 0 0 0   XYZ
    dof rx ry rz
    limits (-20.0 45.0)
           (-30.0 30.0)
           (-30.0 30.0)
  end
  begin
     id 13 
     name thorax
     direction 0.00704869 0.997783 0.0661741   
     length 2.21977   
     axis 0 0 0   XYZ
    dof rx ry rz
    limits (-20.0 45.0)
           (-30.0 30.0)
           (-30.0 30.0)
  end
  begin
     id 14 
     name lowerneck
     direction -0.00407501 0.995527 0.0943846   
     length 1.83142   
     axis 0 0 0   XYZ
    dof rx ry rz
    limits (-20.0 45.0)
           (-30.0 30.0)
           (-30.0 30.0)
  end
  begin
     id 15 
     name upperneck
     direction 0.0640586 0.986486 -0.150807   
     length 1.84616   
     axis 0 0 0   XYZ
    dof rx ry rz
    limits (-20.0 45.0)
           (-30.0 30.0)
           (-30.0 30.0)
  end
  begin
     id 16
     name head
     direction 0.0188017 0.99791 -0.0618239  
     length 1.85932  
     axis 0 0 0   XYZ
    dof rx ry rz
    limits (-20.0 45.0)
           (-30.0 30.0)
           (-30.0 30.0)
  end
  begin
     id 17 
     name lclavicle
     direction 0.976074 0.206905 0.066852  
     length 3.81043  
     axis 0 0 0   XYZ
    dof ry rz
    limits (-20.0 10.0)
           (0.0 20.0)
  end
  begin
     id 18 
     name lhumerus
     direction 1 -4.48971e-011 1.86916e-027   
     length 5.37587   
     axis 180 -30 -90   XYZ
    dof rx ry rz
    limits (-60.0 90.0)
           (-90.0 90.0)
           (-90.0 90.0)
  end
  begin
     id 19
     name lradius
     direction 1 -4.48968e-011 1.69187e-027   
     length 3.35977   
     axis 180 -30 -90   XYZ
    dof rx
    limits (-10.0 170.0)
  end
  begin
     id 20
     name lwrist
     direction 1 -4.48968e-011 5.8978e-027   
     length 1.67988   
     axis -3.27506e-015 90 90   XYZ
    dof ry
    limits (-180.0 0.0)
 end
  begin
     id 21 
     name lhand
     direction 1 -4.49028e-011 1.18071e-026   
     length 0.561859   
     axis -7.52654e-015 90 90   XYZ
    dof rx rz
    limits (-90.0 90.0)
           (-45.0 45.0)
  end
  begin
     id 22 
     name lfingers
     direction 1 -4.48927e-011 2.35758e-026   
     length 0.452985   
     axis -1.50534e-014 90 90   XYZ
    dof rx
    limits (0.0 90.0)
  end
  begin
     id 23
     name lthumb
     direction 0.707107 -6.34898e-011 0.707107   
     length 0.650399   
     axis -90 45 5.69224e-014   XYZ
    dof rx rz
    limits (-45.0 45.0)
           (-45.0 45.0)
  end
  begin
     id 24 
     name rclavicle
     direction -0.988403 0.151789 0.00439714   
     length 3.6942  
     axis 0 0 0   XYZ 
    dof ry rz
    limits (-10.0 20.0)
           (-20.0 0.0)
  end
  begin
     id 25 
     name rhumerus
     direction -1 -4.48978e-011 1.62495e-027  
     length 5.22819   
     axis 180 30 90   XYZ
    dof rx ry rz
    limits (-90.0 60.0)
           (-90.0 90.0)
           (-90.0 90.0)
  end
  begin
     id 26 
     name rradius
     direction -1 -4.48961e-011 3.47796e-027   
     length 3.40764   
     axis 180 30 90   XYZ
    dof rx
    limits (-10.0 170.0)
  end
  begin
     id 27 
     name rwrist
     direction -1 -4.48949e-011 5.89602e-027   
     length 1.70382   
     axis -3.27506e-015 -90 -90   XYZ
    dof ry
    limits (-180.0 0.0)
  end
  begin
     id 28
     name rhand
     direction -1 -4.48977e-011 1.17973e-026   
     length 0.583255   
     axis -7.52654e-015 -90 -90   XYZ
    dof rx rz
    limits (-90.0 90.0)
           (-45.0 45.0)
  end
  begin
     id 29
     name rfingers
     direction -1 -4.49099e-011 2.36408e-026   
     length 0.470235   
     axis -1.50534e-014 -90 -90   XYZ
    dof rx
    limits (0.0 90.0)
  end
  begin
     id 30
     name rthumb
     direction -0.707107 -6.35011e-011 0.707107   
     length 0.675167   
     axis -90 -45 -5.69224e-014   XYZ
    dof rx rz
    limits (-45.0 45.0)
           (-45.0 45.0)
  end
:hierarchy
  begin
    root lhipjoint rhipjoint lowerback
    lhipjoint lfemur
    lfemur ltibia
    ltibia lfoot
    lfoot ltoes
    rhipjoint rfemur
    rfemur rtibia
    rtibia rfoot
    rfoot rtoes
    lowerback upperback
    upperback thorax
    thorax lowerneck lclavicle rclavicle
    lowerneck upperneck
    upperneck head
    lclavicle lhumerus
    lhumerus lradius
    lradius lwrist
    lwrist lhand lthumb
    lhand lfingers
    rclavicle rhumerus
    rhumerus rradius
    rradius rwrist
    rwrist rhand rthumb
    rhand rfingers
  end

#!OML:ASF G:\JayActor3\Patient Classification 1\Patient 1\Session 2\male.ASF
:FULLY-SPECIFIED
:DEGREES
744
root -39.8466 16.385 -5.79325 906.291 -227.642 -898.428
lowerback 1.28741 1.18221 2.00188
upperback 4.02059 1.56641 1.11008
thorax 3.43422 0.840339 0.0496812
lowerneck -9.82397 6.22066 5.67537
upperneck 9.91967 8.18383 -5.2121
head 5.03716 3.90916 -1.91809
rclavicle -3.93594e-014 -8.74653e-015
rhumerus -40.0587 5.15443 -84.4428
rradius 31.2125
rwrist -11.0683
rhand -25.5895 2.16045
rfingers 7.12502
rthumb 0.942188 -27.8172
lclavicle -3.93594e-014 -8.74653e-015
lhumerus -13.4962 6.24717 70.1165
lradius 17.0998
lwrist -0.0949385
lhand -26.5516 18.184
lfingers 7.12502
lthumb 0.0130154 48.1637
rfemur -19.6144 -1.6084 19.7344
rtibia 46.506
rfoot -30.6658 -8.23075
rtoes 7.20237
lfemur -16.2293 11.9052 -26.2944
ltibia 36.526
lfoot -22.0898 6.46168
ltoes -9.31841
745
root -39.8795 16.3845 -5.7894 906.559 -228.297 -898.148
lowerback 1.40625 1.2154 1.65691
upperback 4.03068 1.62044 0.953842
thorax 3.37246 0.858993 0.0798964
lowerneck -9.91979 6.14089 5.55301
upperneck 9.50955 8.04761 -5.03729
head 4.90622 3.84904 -1.85893
rclavicle 3.79679e-014 1.35174e-014
rhumerus -39.7504 5.10648 -84.3347
rradius 31.5644
rwrist -10.8372
rhand -25.5301 2.46233
rfingers 7.12502
rthumb 0.999581 -27.5151
lclavicle 3.79679e-014 1.35174e-014
lhumerus -13.3854 6.22312 69.4096
lradius 17.2719
lwrist 0.222409
lhand -27.1256 17.9613
lfingers 7.12502
lthumb -0.541354 47.9403
rfemur -20.1176 -1.50508 19.5793
rtibia 47.3522
rfoot -30.522 -8.12609
rtoes 6.99878
lfemur -16.0081 11.4311 -26.4101
ltibia 35.8407
lfoot -22.132 6.45652
ltoes -8.49468
746
root -39.9124 16.3854 -5.78626 906.801 -228.91 -897.897
lowerback 1.53175 1.26127 1.31474
upperback 4.05775 1.69016 0.817778
thorax 3.32408 0.885652 0.129571
lowerneck -10.0136 6.04315 5.4199
upperneck 9.09655 7.89009 -4.85804
head 4.77293 3.77834 -1.7986
rclavicle -1.82882e-014 -2.06736e-014
rhumerus -39.4463 5.09533 -84.2342
rradius 31.9581
rwrist -10.6093
rhand -25.4675 2.73905
rfingers 7.12502
rthumb 1.06001 -27.2381
lclavicle -1.82882e-014 -2.06736e-014
lhumerus -13.2009 6.48388 68.7854
lradius 17.2858
lwrist 0.403929
lhand -27.8071 17.7954
lfingers 7.12502
lthumb -1.19956 47.7718
rfemur -20.6341 -1.39298 19.4164
rtibia 48.212
rfoot -30.261 -7.98886
rtoes 6.54631
lfemur -15.8356 10.994 -26.4827
ltibia 35.2663
lfoot -22.1497 6.37306
ltoes -7.83346
747
root -39.9446 16.3876 -5.78351 906.989 -229.491 -897.697
lowerback 1.66068 1.31253 0.996082
upperback 4.09761 1.76559 0.708641
thorax 3.28669 0.915744 0.193821
lowerneck -10.0691 5.92894 5.26813
upperneck 8.68057 7.71668 -4.67644
head 4.63145 3.69993 -1.73702
rclavicle -9.56154e-014 2.94201e-014
rhumerus -39.1712 5.17924 -84.1824
rradius 32.4418
rwrist -10.5074
rhand -25.5158 2.80043
rfingers 7.12502
rthumb 1.01337 -27.1769
lclavicle -9.56154e-014 2.94201e-014
lhumerus -12.9797 6.99255 68.2479
lradius 17.1597
lwrist 0.469289
lhand -28.5518 17.6911
lfingers 7.12502
lthumb -1.91885 47.6622
rfemur -21.1397 -1.29984 19.2647
rtibia 49.0576
rfoot -29.8745 -7.85986
rtoes 5.77516
lfemur -15.7104 10.6333 -26.4952
ltibia 34.8112
lfoot -22.1379 6.18692
ltoes -7.32557
748
root -39.9755 16.3909 -5.78069 907.102 -230.044 -897.565
lowerback 1.80057 1.36633 0.711888
upperback 4.14269 1.84301 0.631348
thorax 3.24828 0.947522 0.271119
lowerneck -10.0765 5.8025 5.10315
upperneck 8.28121 7.53455 -4.50256
head 4.4874 3.61695 -1.67739
rclavicle -3.04141e-014 1.70955e-014
rhumerus -38.9377 5.34348 -84.1591
rradius 32.9928
rwrist -10.4717
rhand -25.6326 2.73102
rfingers 7.12502
rthumb 0.900611 -27.2468
lclavicle -3.04141e-014 1.70955e-014
lhumerus -12.7637 7.70913 67.7973
lradius 16.9327
lwrist 0.421192
lhand -29.288 17.6819
lfingers 7.12502
lthumb -2.62984 47.6455
rfemur -21.6116 -1.23629 19.1374
rtibia 49.86
rfoot -29.377 -7.76324
rtoes 4.71686
lfemur -15.6242 10.3963 -26.441
ltibia 34.4702
lfoot -22.0866 5.88737
ltoes -6.97012
749
root -40.0045 16.395 -5.77739 907.129 -230.572 -897.496
lowerback 1.9546 1.41712 0.470179
upperback 4.19314 1.91528 0.577273
thorax 3.20774 0.977803 0.347914
lowerneck -10.0567 5.67273 4.94243
upperneck 7.93705 7.35296 -4.33541
head 4.35714 3.534 -1.62023
rclavicle -9.0944e-014 1.98785e-014
rhumerus -38.7391 5.56662 -84.1608
rradius 33.5742
rwrist -10.4503
rhand -25.7695 2.62884
rfingers 7.12502
rthumb 0.768361 -27.3495
lclavicle -9.0944e-014 1.98785e-014
lhumerus -12.5726 8.62874 67.4146
lradius 16.6265
lwrist 0.248679
lhand -29.9325 17.8057
lfingers 7.12502
lthumb -3.25223 47.7607
rfemur -22.0193 -1.2156 19.0274
rtibia 50.5906
rfoot -28.7901 -7.68181
rtoes 3.46243
lfemur -15.5499 10.2975 -26.3302
ltibia 34.2224
lfoot -22.0037 5.48455
ltoes -6.70761
750
root -40.0307 16.3995 -5.77317 907.074 -231.085 -897.479
lowerback 2.11473 1.45997 0.274499
upperback 4.25303 1.97613 0.538187
thorax 3.17433 1.0037 0.414044
lowerneck -10.0317 5.54294 4.78006
upperneck 7.6693 7.17445 -4.1567
head 4.24995 3.4527 -1.55792
rclavicle 1.58034e-014 5.56597e-015
rhumerus -38.5529 5.83124 -84.185
rradius 34.1458
rwrist -10.4233
rhand -25.9059 2.53973
rfingers 7.12502
rthumb 0.636663 -27.4391
lclavicle 1.58034e-014 5.56597e-015
lhumerus -12.4021 9.755 67.085
lradius 16.2323
lwrist -0.115365
lhand -30.4645 17.9877
lfingers 7.12502
lthumb -3.76605 47.9342
rfemur -22.3407 -1.21821 18.9268
rtibia 51.2195
rfoot -28.1447 -7.62086
rtoes 1.99885
lfemur -15.4624 10.294 -26.1768
ltibia 34.0399
lfoot -21.9081 5.00467
ltoes -6.4179
751
root -40.0537 16.4043 -5.76762 906.957 -231.607 -897.491
lowerback 2.27354 1.48385 0.119751
upperback 4.32025 2.0112 0.50448
thorax 3.15044 1.01799 0.462672
lowerneck -10.0267 5.42065 4.63416
upperneck 7.50299 7.00587 -3.96687
head 4.17843 3.37649 -1.492
rclavicle 2.08724e-015 1.98785e-014
rhumerus -38.3697 6.14659 -84.2443
rradius 34.6809
rwrist -10.4073
rhand -26.0257 2.49382
rfingers 7.12502
rthumb 0.520966 -27.4853
lclavicle 2.08724e-015 1.98785e-014
lhumerus -12.2631 11.0497 66.793
lradius 15.7611
lwrist -0.690045
lhand -30.8814 18.1995
lfingers 7.12502
lthumb -4.16865 48.1384
rfemur -22.5585 -1.22042 18.8218
rtibia 51.7163
rfoot -27.4941 -7.52912
rtoes 0.4064
lfemur -15.3386 10.3292 -25.9988
ltibia 33.8905
lfoot -21.8131 4.49378
ltoes -6.08866
752
root -40.0737 16.4093 -5.76026 906.795 -232.114 -897.528
lowerback 2.42363 1.4954 -0.00783295
upperback 4.38714 2.02941 0.474714
thorax 3.13197 1.02462 0.50026
lowerneck -10.0472 5.30894 4.51572
upperneck 7.4431 6.85094 -3.782
head 4.146 3.30665 -1.42872
rclavicle 3.84648e-014 -5.96354e-015
rhumerus -38.1773 6.50614 -84.3334
rradius 35.1471
rwrist -10.394
rhand -26.128 2.47448
rfingers 7.12502
rthumb 0.422144 -27.5048
lclavicle 3.84648e-014 -5.96354e-015
lhumerus -12.1628 12.4854 66.5302
lradius 15.2023
lwrist -1.49367
lhand -31.1686 18.4357
lfingers 7.12502
lthumb -4.44591 48.369
rfemur -22.6833 -1.17076 18.7102
rtibia 52.055
rfoot -26.9257 -7.28543
rtoes -0.917475
lfemur -15.1734 10.3551 -25.8091
ltibia 33.7478
lfoot -21.7315 4.02158
ltoes -5.73517
